<?xml version="1.0" standalone="no"?>
<!DOCTYPE svg PUBLIC "-//W3C//DTD SVG 20010904//EN"
 "http://www.w3.org/TR/2001/REC-SVG-20010904/DTD/svg10.dtd">
<svg version="1.0" xmlns="http://www.w3.org/2000/svg"
 width="512.000000pt" height="512.000000pt" viewBox="0 0 512.000000 512.000000"
 preserveAspectRatio="xMidYMid meet">
<metadata>
Created by potrace 1.11, written by Peter Selinger 2001-2013
</metadata>
<g transform="translate(0.000000,512.000000) scale(0.100000,-0.100000)"
fill="#000000" stroke="none">
<path d="M2245 4884 c-236 -33 -522 -122 -734 -229 -657 -329 -1123 -949
-1256 -1670 -125 -676 44 -1351 475 -1896 308 -391 775 -687 1272 -809 208
-51 322 -64 558 -64 236 0 350 13 558 64 172 42 308 92 477 175 466 228 836
596 1065 1060 168 342 243 659 243 1035 1 374 -75 702 -237 1035 -336 689
-966 1157 -1736 1291 -137 24 -538 28 -685 8z m2005 -2309 l0 -1165 -205 0
-205 0 0 44 c0 54 -10 62 -43 36 -75 -60 -237 -110 -352 -110 -345 0 -607 282
-654 703 -41 362 37 653 224 843 126 128 253 179 440 178 116 -1 190 -19 283
-70 34 -19 65 -34 67 -34 3 0 5 167 5 370 l0 370 220 0 220 0 0 -1165z m-2220
1050 c303 -73 509 -276 584 -577 13 -51 26 -121 30 -155 l7 -63 -229 0 -228 0
-16 89 c-31 171 -95 265 -214 311 -85 33 -254 34 -337 1 -118 -46 -197 -134
-241 -270 -44 -134 -50 -191 -50 -451 0 -212 3 -258 21 -343 27 -124 68 -212
130 -278 90 -96 215 -133 375 -111 189 27 277 118 315 327 l16 85 229 0 229 0
-6 -57 c-45 -392 -274 -651 -645 -729 -127 -27 -337 -25 -455 4 -374 93 -613
398 -665 852 -18 154 -8 518 18 635 50 225 142 399 278 525 129 121 265 184
484 224 51 9 307 -4 370 -19z"/>
<path d="M3412 2694 c-123 -61 -182 -211 -182 -462 0 -186 32 -300 106 -382
55 -61 111 -84 206 -83 101 0 172 33 229 105 l39 50 0 322 0 323 -29 40 c-57
79 -132 113 -245 113 -57 0 -83 -5 -124 -26z"/>
</g>
</svg>
